<svg width="53" height="46" viewBox="0 0 53 46" fill="none" xmlns="http://www.w3.org/2000/svg">
<path d="M46.4062 0.148438C44.1552 0.148438 42.1854 1.37521 41.1303 3.19531H2.02344C1.18209 3.19531 0.5 3.87741 0.5 4.71875V44.3281C0.5 45.1695 1.18209 45.8516 2.02344 45.8516H46.4062C49.7663 45.8516 52.5 43.1179 52.5 39.7578V6.24219C52.5 2.88209 49.7663 0.148438 46.4062 0.148438ZM46.4062 42.8047C45.8103 42.8047 4.1011 42.8047 3.54688 42.8047V6.24219H40.3125V39.7578C40.3125 40.5992 40.9946 41.2812 41.8359 41.2812C42.6773 41.2812 43.3594 40.5992 43.3594 39.7578C43.3594 38.0778 44.7262 36.7109 46.4062 36.7109C48.0863 36.7109 49.4531 38.0778 49.4531 39.7578C49.4531 41.4379 48.0863 42.8047 46.4062 42.8047ZM49.4531 34.4818C48.5563 33.9619 47.5153 33.6641 46.4062 33.6641C45.2972 33.6641 44.2562 33.9619 43.3594 34.4818V6.24219C43.3594 4.56214 44.7262 3.19531 46.4062 3.19531C48.0863 3.19531 49.4531 4.56214 49.4531 6.24219V34.4818Z" fill="#FF5A30"/>
</svg>
